HIERARCHY
ROOT Hips
{
	OFFSET 0.000000 0.000000 0.000000
	CHANNELS 6 Xposition Yposition Zposition Zrotation Yrotation Xrotation 
	JOINT LowerBack
	{
		OFFSET 0.000000 0.000000 0.000000
		CHANNELS 3 Zrotation Yrotation Xrotation
		JOINT Spine
		{
			OFFSET 0.028270 2.035590 -0.193380
			CHANNELS 3 Zrotation Yrotation Xrotation
			JOINT Spine1
			{
				OFFSET 0.056720 2.048850 -0.042750
				CHANNELS 3 Zrotation Yrotation Xrotation
				JOINT Neck
				{
					OFFSET 0.000000 0.000000 0.000000
					CHANNELS 3 Zrotation Yrotation Xrotation
					JOINT Neck1
					{
						OFFSET -0.054170 1.746240 0.172020
						CHANNELS 3 Zrotation Yrotation Xrotation
						JOINT Head
						{
							OFFSET 0.104070 1.761360 -0.123970
							CHANNELS 3 Zrotation Yrotation Xrotation
							End Site
							{
								OFFSET 0.000000 0.000000 0.000000
							}
						}
					}
				}
				JOINT LeftShoulder
				{
					OFFSET 0.000000 0.000000 0.000000
					CHANNELS 3 Zrotation Yrotation Xrotation
					JOINT LeftArm
					{
						OFFSET 3.362410 1.200890 -0.311210
						CHANNELS 3 Zrotation Yrotation Xrotation
						JOINT LeftForeArm
						{
							OFFSET 4.983000 -0.000000 -0.000000
							CHANNELS 3 Zrotation Yrotation Xrotation
							JOINT LeftHand
							{
								OFFSET 3.483560 -0.000000 -0.000000
								CHANNELS 3 Zrotation Yrotation Xrotation
								JOINT LeftFingerBase
								{
									OFFSET 0.000000 0.000000 0.000000
									CHANNELS 3 Zrotation Yrotation Xrotation
									JOINT LeftHandIndex1
									{
										OFFSET 0.715260 -0.000000 -0.000000
										CHANNELS 3 Zrotation Yrotation Xrotation
										End Site
										{
											OFFSET 0.000000 0.000000 0.000000
										}
									}
								}
								JOINT LThumb
								{
									OFFSET 0.000000 0.000000 0.000000
									CHANNELS 3 Zrotation Yrotation Xrotation
									End Site
									{
										OFFSET 0.000000 0.000000 0.000000
									}
								}
							}
						}
					}
				}
				JOINT RightShoulder
				{
					OFFSET 0.000000 0.000000 0.000000
					CHANNELS 3 Zrotation Yrotation Xrotation
					JOINT RightArm
					{
						OFFSET -3.136600 1.374050 -0.404650
						CHANNELS 3 Zrotation Yrotation Xrotation
						JOINT RightForeArm
						{
							OFFSET -5.241900 -0.000000 -0.000000
							CHANNELS 3 Zrotation Yrotation Xrotation
							JOINT RightHand
							{
								OFFSET -3.444170 -0.000000 -0.000000
								CHANNELS 3 Zrotation Yrotation Xrotation
								JOINT RightFingerBase
								{
									OFFSET 0.000000 0.000000 0.000000
									CHANNELS 3 Zrotation Yrotation Xrotation
									JOINT RightHandIndex1
									{
										OFFSET -0.622530 -0.000000 -0.000000
										CHANNELS 3 Zrotation Yrotation Xrotation
										End Site
										{
											OFFSET 0.000000 0.000000 0.000000
										}
									}
								}
								JOINT RThumb
								{
									OFFSET 0.000000 0.000000 0.000000
									CHANNELS 3 Zrotation Yrotation Xrotation
									End Site
									{
										OFFSET 0.000000 0.000000 0.000000
									}
								}
							}
						}
					}
				}
			}
		}
	}
}
}
MOTION
Frames: 9
Frame Time: 0.008333
-2.501760 16.851166 -0.119460 -139.764070 87.614750 -102.309014 8.754936 -5.488805 0.590821 2.095468 -5.937118 -2.719888 -3.506276 -6.025724 1.293558 3.221435 -18.722697 -5.653876 -1.696935 -0.144692 0.298908 0.000000 0.000000 0.000000 7.239378 4.191513 -1.373759 -63.198446 -16.832290 8.426340 -178.502173 -67.308888 179.946811 6.156189 -3.234978 -0.216205 -0.245072 0.700377 0.000000 0.000000 0.000000 0.000000 0.000000 0.000000 0.000000 -2.008018 -17.506834 0.387328 60.029684 -24.838522 18.748123 179.957047 88.217496 -179.996195 1.656483 11.210215 0.171030 -0.032078 -0.317784 -0.000000 0.000000 0.000000 0.000000 0.000000 0.000000 0.000000 
-2.163734 16.772700 -0.096496 -133.776846 87.838631 -97.044941 8.935762 -5.565298 0.804494 2.099152 -6.006148 -2.712507 -3.699414 -6.082623 1.142279 3.725743 -18.619040 -5.717004 -1.787353 -0.150557 0.289568 0.000000 0.000000 0.000000 6.823966 3.752896 -1.182712 -64.041088 -13.991700 9.574117 -178.643310 -69.577718 179.954995 5.568540 -2.987604 -0.180894 -0.222225 0.662324 0.000000 0.000000 0.000000 0.000000 0.000000 0.000000 0.000000 -1.082351 -17.303754 0.319163 60.286340 -24.094210 17.838939 179.930501 87.628397 -179.994832 1.934110 11.227018 0.199732 -0.034212 -0.326104 -0.000000 0.000000 0.000000 0.000000 0.000000 0.000000 0.000000 
-1.826546 16.683443 -0.071941 -126.339444 88.005137 -90.342883 9.128756 -5.613446 0.985374 2.094568 -6.046026 -2.706568 -3.932332 -6.108694 0.988219 4.278588 -18.432419 -5.762826 -1.890282 -0.157604 0.286469 0.000000 0.000000 0.000000 6.304096 3.294576 -0.980239 -64.844103 -11.186659 10.567505 -178.824037 -72.214798 179.962019 5.057684 -2.713305 -0.149610 -0.201617 0.621044 -0.000000 0.000000 0.000000 0.000000 0.000000 0.000000 0.000000 -0.024691 -17.038795 0.248362 60.599906 -23.283747 16.894462 179.909509 87.256920 -179.993463 2.148618 11.215789 0.221441 -0.034762 -0.333148 -0.000000 0.000000 0.000000 0.000000 0.000000 0.000000 0.000000 
-1.491055 16.584691 -0.045980 -117.520260 88.084798 -82.265429 9.350113 -5.631488 1.137568 2.085505 -6.056230 -2.700962 -4.201526 -6.104518 0.836629 4.864969 -18.161874 -5.793589 -2.004858 -0.165727 0.288650 0.000000 0.000000 0.000000 5.698315 2.825595 -0.769471 -65.606436 -8.423796 11.386235 -179.042354 -75.197033 179.967528 4.671343 -2.426202 -0.124039 -0.184518 0.577517 -0.000000 0.000000 0.000000 0.000000 0.000000 0.000000 0.000000 1.142094 -16.715621 0.175826 60.992141 -22.373127 15.916380 179.896881 87.150476 -179.992159 2.284826 11.164513 0.234154 -0.033426 -0.338527 -0.000000 0.000000 0.000000 0.000000 0.000000 0.000000 0.000000 
-1.158262 16.478515 -0.018883 -107.648102 88.067595 -73.137105 9.595271 -5.617289 1.271897 2.070425 -6.035244 -2.692164 -4.502937 -6.069341 0.696597 5.474940 -17.813257 -5.815484 -2.130338 -0.174762 0.293800 0.000000 0.000000 0.000000 5.025723 2.378345 -0.552197 -66.327607 -5.737207 12.034422 -179.293045 -78.518339 179.971411 4.445148 -2.145735 -0.104869 -0.171599 0.532697 -0.000000 0.000000 0.000000 0.000000 0.000000 0.000000 0.000000 2.405239 -16.344505 0.099205 61.468484 -21.310159 14.929682 179.895515 87.345364 -179.991011 2.326200 11.072892 0.236173 -0.029943 -0.342135 -0.000000 0.000000 0.000000 0.000000 0.000000 0.000000 0.000000 
-0.829183 16.367640 0.008781 -97.348027 87.950797 -63.573696 9.852073 -5.570707 1.397874 2.046151 -5.983347 -2.678187 -4.830885 -6.004168 0.575220 6.100188 -17.390091 -5.833322 -2.267171 -0.184659 0.299952 0.000000 0.000000 0.000000 4.310205 1.983024 -0.329444 -67.012085 -3.157964 12.521247 -179.568140 -82.169007 179.973815 4.395453 -1.881779 -0.091399 -0.162723 0.487197 -0.000000 0.000000 0.000000 0.000000 0.000000 0.000000 0.000000 3.757213 -15.931736 0.015657 62.017651 -20.042772 13.974795 179.907626 87.856473 -179.990099 2.264969 10.944637 0.226999 -0.024294 -0.344062 -0.000000 0.000000 0.000000 0.000000 0.000000 0.000000 0.000000 
-0.504809 16.255384 0.036235 -87.455065 87.740483 -54.398732 10.105477 -5.495930 1.523605 2.009905 -5.904744 -2.657561 -5.177497 -5.913722 0.480647 6.734178 -16.899310 -5.852620 -2.415577 -0.195336 0.304867 0.000000 0.000000 0.000000 3.576670 1.677244 -0.101388 -67.669294 -0.733736 12.871894 -179.858593 -86.155094 179.975070 4.518739 -1.641969 -0.082428 -0.157225 0.441472 -0.000000 0.000000 0.000000 0.000000 0.000000 0.000000 0.000000 5.192754 -15.486702 -0.078826 62.613468 -18.519010 13.112724 179.934553 88.678344 -179.989498 2.100387 10.794706 0.207230 -0.016731 -0.344658 -0.000000 0.000000 0.000000 0.000000 0.000000 0.000000 0.000000 
-0.186005 16.145395 0.062617 -78.771790 87.449914 -46.403870 10.346915 -5.401512 1.655291 1.961903 -5.807713 -2.630088 -5.533214 -5.806769 0.417739 7.370292 -16.343256 -5.875308 -2.576099 -0.206789 0.307380 0.000000 0.000000 0.000000 2.852700 1.487317 0.132316 -68.310818 1.493714 13.112651 -0.154832 -89.520762 -0.024335 4.789187 -1.426709 -0.076260 -0.153943 0.395809 -0.000000 0.000000 0.000000 0.000000 0.000000 0.000000 0.000000 6.705448 -15.011865 -0.187417 63.221845 -16.705028 12.413855 179.976102 89.779575 -179.989264 1.842291 10.642712 0.178765 -0.007820 -0.344415 -0.000000 0.000000 0.000000 0.000000 0.000000 0.000000 0.000000 
0.126558 16.041332 0.087115 -71.791137 87.093532 -40.073010 10.579958 -5.297092 1.797212 1.906120 -5.701582 -2.596894 -5.888610 -5.693151 0.385658 8.001428 -15.716789 -5.897018 -2.749644 -0.219124 0.308261 0.000000 0.000000 0.000000 2.163201 1.417107 0.372673 -68.946841 3.503321 13.264359 -0.447021 -84.869565 -0.023885 5.160436 -1.217495 -0.070497 -0.151354 0.350203 0.000000 0.000000 0.000000 0.000000 0.000000 0.000000 0.000000 8.286132 -14.498135 -0.311045 63.806921 -14.597624 11.950090 0.030088 88.899182 0.010579 1.508624 10.504558 0.143901 0.001683 -0.343839 -0.000000 0.000000 0.000000 0.000000 0.000000 0.000000 0.000000 
